<svg xmlns="http://www.w3.org/2000/svg" viewBox="0 0 175.6 86.67"><defs><style>.cls-1{fill:#d82828;}</style></defs><g id="Layer_2" data-name="Layer 2"><g id="Layer_1-2" data-name="Layer 1"><path class="cls-1" d="M132.26,0c-19,0-32.54,13.53-44.46,26C75.87,13.53,62.29,0,43.33,0a43.34,43.34,0,0,0,0,86.67c19,0,32.56-13.53,44.48-26,11.93,12.44,25.52,26,44.45,26a43.34,43.34,0,1,0,0-86.67Zm19,43.33a19,19,0,0,1-19,19c-8.94,0-17.59-8.76-27.43-19,9.52-9.94,18.54-19,27.43-19A19,19,0,0,1,151.29,43.33Zm-80.52,0c-9.14,9.56-18.54,19-27.44,19a19,19,0,0,1,0-38C52.23,24.31,60.84,33,70.77,43.34Z"/></g></g></svg>